<svg width="512" height="512" viewBox="0 0 512 512" fill="none" xmlns="http://www.w3.org/2000/svg">
  <defs>
    <linearGradient id="fg-left" x1="0.1" y1="0.1" x2="0.6" y2="0.9">
      <stop offset="0%" stop-color="#5C6BC0" />
      <stop offset="100%" stop-color="#3F51B5" />
    </linearGradient>
    <linearGradient id="fg-right" x1="0.4" y1="0.1" x2="0.9" y2="0.9">
      <stop offset="0%" stop-color="#42A5F5" />
      <stop offset="100%" stop-color="#1E88E5" />
    </linearGradient>
    <linearGradient id="fg-overlap" x1="0.3" y1="0.3" x2="0.7" y2="0.7">
      <stop offset="0%" stop-color="#3949AB" />
      <stop offset="100%" stop-color="#1565C0" />
    </linearGradient>
  </defs>
  <!-- Left triangle (behind) -->
  <path
    d="M72 100 C72 68 96 52 124 72 L248 184 C272 202 272 310 248 328 L124 440 C96 460 72 444 72 412 Z"
    fill="url(#fg-left)"
  />
  <!-- Right triangle (front) -->
  <path
    d="M212 100 C212 68 236 52 264 72 L388 184 C412 202 412 310 388 328 L264 440 C236 460 212 444 212 412 Z"
    fill="url(#fg-right)"
  />
  <!-- Overlap area -->
  <path
    d="M212 100 C212 68 236 52 264 72 L248 184 C272 202 272 310 248 328 L264 440 C236 460 212 444 212 412 Z"
    fill="url(#fg-overlap)"
    opacity="0.6"
  />
</svg>
