<svg width="180" height="180" viewBox="0 0 180 180" fill="none" xmlns="http://www.w3.org/2000/svg">
  <defs>
    <linearGradient id="favicon-grad-left" x1="0" y1="0" x2="0.5" y2="1">
      <stop offset="0%" stop-color="#4A5DB5" />
      <stop offset="100%" stop-color="#3B7DD8" />
    </linearGradient>
    <linearGradient id="favicon-grad-right" x1="0.5" y1="0" x2="1" y2="1">
      <stop offset="0%" stop-color="#3B7DD8" />
      <stop offset="100%" stop-color="#2196F3" />
    </linearGradient>
    <clipPath id="clip-rounded">
      <rect width="180" height="180" rx="37" />
    </clipPath>
  </defs>
  <g clip-path="url(#clip-rounded)">
    <rect width="180" height="180" rx="37" fill="white" />
    <!-- Upper-left triangle -->
    <path
      d="M22 32 C22 22 28 18 34 23 L92 68 C98 73 98 97 92 102 L34 147 C28 152 22 148 22 138 Z"
      fill="url(#favicon-grad-left)"
      opacity="0.92"
    />
    <!-- Lower-right triangle (overlapping) -->
    <path
      d="M78 32 C78 22 84 18 90 23 L148 68 C154 73 154 97 148 102 L90 147 C84 152 78 148 78 138 Z"
      fill="url(#favicon-grad-right)"
      opacity="0.78"
    />
  </g>
</svg>
