<svg width="180" height="180" viewBox="0 0 180 180" fill="none" xmlns="http://www.w3.org/2000/svg">
  <defs>
    <linearGradient id="favicon-grad-left" x1="0" y1="0" x2="0.5" y2="1">
      <stop offset="0%" stop-color="#4A5DB5" />
      <stop offset="100%" stop-color="#3B7DD8" />
    </linearGradient>
    <linearGradient id="favicon-grad-right" x1="0.5" y1="0" x2="1" y2="1">
      <stop offset="0%" stop-color="#3B7DD8" />
      <stop offset="100%" stop-color="#2196F3" />
    </linearGradient>
    <clipPath id="clip-rounded">
      <rect width="180" height="180" rx="37" />
    </clipPath>
  </defs>
  <g clip-path="url(#clip-rounded)">
    <!-- Background -->
    <rect width="180" height="180" rx="37" fill="white" />
    <!-- Left triangle -->
    <path
      d="M25 35 C25 28 30 24 36 28 L88 78 C94 83 94 97 88 102 L36 152 C30 156 25 152 25 145 Z"
      fill="url(#favicon-grad-left)"
      opacity="0.92"
    />
    <!-- Right triangle (overlapping) -->
    <path
      d="M85 35 C85 28 90 24 96 28 L148 78 C154 83 154 97 148 102 L96 152 C90 156 85 152 85 145 Z"
      fill="url(#favicon-grad-right)"
      opacity="0.85"
    />
  </g>
</svg>
